HIERARCHY
ROOT SpineBase
{
  OFFSET 0.000000 0.000000 0.000000
  CHANNELS 6 Xposition Yposition Zposition Zrotation Xrotation Yrotation
  JOINT SpineMid
  {
    OFFSET -0.000000 30.429564 0.000000
    CHANNELS 3 Zrotation Xrotation Yrotation
    JOINT SpineShoulder
    {
      OFFSET -0.071774 22.646486 -0.770490
      CHANNELS 3 Zrotation Xrotation Yrotation
      JOINT Neck
      {
        OFFSET -0.065080 7.515615 -0.576821
        CHANNELS 3 Zrotation Xrotation Yrotation
        JOINT Head
        {
          OFFSET -3.298133 13.659421 2.001733
          CHANNELS 3 Zrotation Xrotation Yrotation
          End Site
          {
            OFFSET 0 0 0
          }
        }
      }
      JOINT ShoulderLeft
      {
        OFFSET -15.327542 -2.369456 11.192890
        CHANNELS 3 Zrotation Xrotation Yrotation
        JOINT ElbowLeft
        {
          OFFSET -2.821362 -32.168507 1.923836
          CHANNELS 3 Zrotation Xrotation Yrotation
          JOINT WristLeft
          {
            OFFSET 0.109107 -23.426205 -5.424728
            CHANNELS 3 Zrotation Xrotation Yrotation
            JOINT HandLeft
            {
              OFFSET -0.097789 -3.225660 -0.748143
              CHANNELS 3 Zrotation Xrotation Yrotation
              JOINT HandTipLeft
              {
                OFFSET 0.076155 -7.060185 -1.245803
                CHANNELS 3 Zrotation Xrotation Yrotation
                End Site
                {
                  OFFSET 0 0 0
                }
              }
              JOINT ThumbLeft
              {
                OFFSET 4.432057 2.545109 -4.061748
                CHANNELS 3 Zrotation Xrotation Yrotation
                End Site
                {
                  OFFSET 0 0 0
                }
              }
            }
          }
        }
      }
      JOINT ShoulderRight
      {
        OFFSET 11.717791 -2.262899 -7.264882
        CHANNELS 3 Zrotation Xrotation Yrotation
        JOINT ElbowRight
        {
          OFFSET 8.866213 -27.873469 -3.437568
          CHANNELS 3 Zrotation Xrotation Yrotation
          JOINT WristRight
          {
            OFFSET 1.275129 -23.126970 -6.493265
            CHANNELS 3 Zrotation Xrotation Yrotation
            JOINT HandRight
            {
              OFFSET -0.841951 -5.001661 0.993249
              CHANNELS 3 Zrotation Xrotation Yrotation
              JOINT HandTipRight
              {
                OFFSET -1.022055 -7.742440 -3.154119
                CHANNELS 3 Zrotation Xrotation Yrotation
                End Site
                {
                  OFFSET 0 0 0
                }
              }
              JOINT ThumbRight
              {
                OFFSET -3.452861 -1.591291 -5.865096
                CHANNELS 3 Zrotation Xrotation Yrotation
                End Site
                {
                  OFFSET 0 0 0
                }
              }
            }
          }
        }
      }
    }
  }
  JOINT HipLeft
  {
    OFFSET -6.421738 0.331697 -0.153462
    CHANNELS 3 Zrotation Xrotation Yrotation
    JOINT KneeLeft
    {
      OFFSET -0.444058 -35.435936 2.319896
      CHANNELS 3 Zrotation Xrotation Yrotation
      JOINT AnkleLeft
      {
        OFFSET -1.886912 -35.964734 10.317935
        CHANNELS 3 Zrotation Xrotation Yrotation
        JOINT FootLeft
        {
          OFFSET -5.583304 -2.853635 -11.790675
          CHANNELS 3 Zrotation Xrotation Yrotation
          End Site
          {
            OFFSET 0 0 0
          }
        }
      }
    }
  }
  JOINT HipRight
  {
    OFFSET 5.666698 2.001321 -6.511927
    CHANNELS 3 Zrotation Xrotation Yrotation
    JOINT KneeRight
    {
      OFFSET 8.310432 -33.035339 -7.397850
      CHANNELS 3 Zrotation Xrotation Yrotation
      JOINT AnkleRight
      {
        OFFSET 7.448439 -37.881254 8.057748
        CHANNELS 3 Zrotation Xrotation Yrotation
        JOINT FootRight
        {
          OFFSET -1.816108 -7.644001 -4.217483
          CHANNELS 3 Zrotation Xrotation Yrotation
          End Site
          {
            OFFSET 0 0 0
          }
        }
      }
    }
  }
}
MOTION
Frames: 14
Frame Time: 0.033333
33.094816 79.479297 303.402651 1.818969 0.056012 51.364093 -1.179677 1.385792 -51.350715 -0.000000 0.000000 0.000000 10.198324 11.060409 0.183834 0.000000 0.000000 0.000000 -5.910301 3.937183 -0.494674 -12.059921 26.181460 8.370728 -11.385587 25.428658 3.914179 8.247971 -4.185751 2.884662 0.000000 0.000000 0.000000 0.000000 0.000000 0.000000 -39.947606 15.473433 17.340576 -26.922491 -27.204061 -17.255719 -6.889761 13.135335 -18.717246 12.311251 -16.959137 29.186352 0.000000 0.000000 0.000000 0.000000 0.000000 0.000000 -2.210768 4.219768 -51.499468 6.139342 2.927964 0.917051 24.833463 -41.660673 32.492899 0.000000 0.000000 0.000000 -3.134839 -1.069111 -52.275281 3.687974 6.916357 2.263835 -22.296180 14.601824 5.027059 0.000000 0.000000 0.000000
33.788905 79.985246 303.197344 2.066196 0.256091 54.380006 -1.411792 1.530372 -54.365767 -0.000000 0.000000 0.000000 8.749595 11.049589 0.526411 0.000000 0.000000 0.000000 -9.630473 10.638566 -0.613163 -16.623515 25.947991 11.844345 -4.919190 15.535806 1.492253 -3.628025 1.894194 0.118310 0.000000 0.000000 0.000000 0.000000 0.000000 0.000000 -51.811106 12.818653 19.826924 -24.184697 -29.600976 -21.017999 -11.045492 12.640147 -19.969402 15.574462 -14.939494 33.107101 0.000000 0.000000 0.000000 0.000000 0.000000 0.000000 -2.510999 5.394937 -54.564034 6.473968 2.419668 0.870454 25.192160 -41.047766 33.258214 0.000000 0.000000 0.000000 -4.140937 -0.946448 -55.374051 3.400144 7.393783 2.223343 -25.683216 16.704418 7.366602 0.000000 0.000000 0.000000
34.550375 80.402866 302.690020 2.183287 0.519030 54.058811 -1.401376 0.592173 -54.023228 -0.881180 0.268412 -0.027069 6.293722 11.162763 1.133632 0.000000 0.000000 0.000000 -13.930189 17.576511 -0.226399 -24.660102 24.201499 15.763240 4.327675 5.834034 0.560502 -4.881621 10.450541 2.485736 0.000000 0.000000 0.000000 0.000000 0.000000 0.000000 -62.944099 8.549534 20.191564 -20.262523 -31.051485 -23.208802 -12.784382 11.104078 -21.641685 16.276217 -12.950553 36.954395 0.000000 0.000000 0.000000 0.000000 0.000000 0.000000 -3.620411 5.511267 -54.228844 6.381708 2.847379 0.680151 21.698282 -37.671693 30.778349 0.000000 0.000000 0.000000 -4.814602 -0.749988 -54.987468 3.249337 7.188185 2.004674 -23.281695 13.854439 6.820827 0.000000 0.000000 0.000000
35.214250 80.656577 302.003956 2.017555 0.674192 50.802449 -1.203126 0.185853 -50.765915 -0.373204 -0.190568 0.018182 2.469059 12.075880 1.933717 0.000000 0.000000 0.000000 -19.273807 24.238950 0.769211 -36.736249 22.031526 19.606854 4.281430 -4.920888 -2.509607 -5.136304 9.673136 2.742017 0.000000 0.000000 0.000000 0.000000 0.000000 0.000000 -74.249745 4.301276 19.647661 -14.736773 -31.551119 -23.953457 -15.467060 8.068472 -24.393981 18.393942 -7.689452 40.340030 0.000000 0.000000 0.000000 0.000000 0.000000 0.000000 -5.028356 4.398516 -50.933831 5.553539 4.024407 0.338736 16.360127 -32.018507 25.919882 0.000000 0.000000 0.000000 -4.739301 -0.713682 -51.564223 2.994090 6.245116 1.650733 -17.783193 8.535836 5.000999 0.000000 0.000000 0.000000
36.078211 80.790590 301.500780 2.174093 0.450370 46.997242 -0.844226 0.139561 -46.946837 -0.268373 -0.232728 0.043578 -2.268019 11.660126 2.888188 0.000000 0.000000 0.000000 -23.341531 29.186434 1.868950 -53.174986 18.731017 21.805536 -21.564202 -9.928176 -19.625323 17.100772 3.256680 1.891934 0.000000 0.000000 0.000000 0.000000 0.000000 0.000000 -83.328827 0.093585 17.133067 -10.776355 -31.136989 -23.492231 -12.532205 9.509738 -25.167024 20.381743 -10.833291 39.167492 0.000000 0.000000 0.000000 0.000000 0.000000 0.000000 -6.216678 3.929368 -47.090589 5.168508 5.079126 0.110036 10.542573 -24.898686 21.183553 0.000000 0.000000 0.000000 -4.763445 0.346689 -47.352516 3.364442 5.046269 1.113899 -8.743714 -0.332941 2.136086 0.000000 0.000000 0.000000
37.245095 80.929670 300.620120 2.761804 0.553372 41.871526 -0.800303 -0.006121 -41.800901 -0.320524 -0.298573 0.070383 -7.941721 11.090923 3.976345 0.000000 0.000000 0.000000 -28.834083 32.743572 3.425657 -65.955478 14.243902 20.904903 -44.918832 -21.260212 -62.494874 9.284585 21.408323 14.209646 0.000000 0.000000 0.000000 0.000000 0.000000 0.000000 -90.352928 -3.212551 13.964621 -8.205896 -29.964502 -21.747593 -4.795323 14.877755 -24.322936 19.107997 -15.034077 38.619939 0.000000 0.000000 0.000000 0.000000 0.000000 0.000000 -8.661155 2.980053 -41.948220 5.534612 6.763357 -0.037327 5.617189 -17.843495 16.806509 0.000000 0.000000 0.000000 -6.299252 1.432490 -41.760336 4.447077 4.237628 0.502129 -5.453107 -3.542418 1.737458 0.000000 0.000000 0.000000
38.312513 81.071882 299.764990 3.367163 0.582401 36.368196 -0.778951 -0.140006 -36.276060 -0.364145 -0.289234 0.096381 -13.795351 10.337729 5.026441 0.000000 0.000000 0.000000 -33.353531 33.900233 4.587144 -76.643998 9.183834 17.466081 -53.947052 -20.526706 -95.112533 1.832277 28.955918 26.745432 0.000000 0.000000 0.000000 0.000000 0.000000 0.000000 -95.784590 -5.946240 10.269349 -5.314746 -27.850324 -17.696657 -2.080885 15.494656 -26.267387 20.156418 -15.839032 38.509591 0.000000 0.000000 0.000000 0.000000 0.000000 0.000000 -10.767797 1.681785 -36.485119 6.195815 8.377506 -0.110951 1.928634 -12.059813 13.342451 0.000000 0.000000 0.000000 -8.073940 2.328677 -35.741272 5.755562 3.370056 -0.112201 -5.934466 -3.387137 2.483296 0.000000 0.000000 0.000000
39.164619 81.155385 299.015744 3.851209 0.510840 30.546781 -0.819392 -0.238167 -30.436564 -0.379077 -0.235162 0.114106 -18.598846 9.508438 5.800561 0.000000 0.000000 0.000000 -37.977694 32.909972 5.438504 -82.350923 2.766946 11.537100 -45.450167 -11.803674 -76.068294 19.045670 18.384163 -0.374730 0.000000 0.000000 0.000000 0.000000 0.000000 0.000000 -99.229450 -7.709320 7.405147 -3.310773 -24.718099 -11.933146 5.268931 8.928853 -33.814343 15.178519 -13.160814 40.011108 0.000000 0.000000 0.000000 0.000000 0.000000 0.000000 -12.023615 0.052696 -30.758619 6.625984 9.533523 -0.153592 -0.382553 -7.917855 10.539976 0.000000 0.000000 0.000000 -9.651755 2.913056 -29.405654 6.940956 2.300712 -0.692286 -1.071330 -7.919750 1.536271 0.000000 0.000000 0.000000
39.683317 81.184108 298.428579 4.063975 0.375537 25.555039 -0.811697 -0.325190 -25.432485 -0.335918 -0.149771 0.124640 -21.771800 8.900854 6.279521 0.000000 0.000000 0.000000 -42.347626 28.213697 5.168742 -83.627456 0.034512 14.754029 -40.946887 -12.543787 -76.119442 18.459163 16.217749 -3.882482 0.000000 0.000000 0.000000 0.000000 0.000000 0.000000 -101.047033 -8.970364 4.970446 -0.529242 -25.186540 -11.703216 2.051529 18.168518 -26.468090 20.534966 -18.005760 37.539347 0.000000 0.000000 0.000000 0.000000 0.000000 0.000000 -12.252459 -1.376318 -25.859763 6.900891 10.001204 -0.132544 -1.773317 -5.313826 8.332353 0.000000 0.000000 0.000000 -10.832084 3.133562 -24.002099 8.004902 1.386166 -1.125517 -4.551395 -4.820398 2.791283 0.000000 0.000000 0.000000
39.812422 81.124252 298.081887 3.896648 0.148586 22.005089 -0.677192 -0.371384 -21.878101 -0.245929 -0.037458 0.125873 -23.769676 8.330265 6.535049 0.000000 0.000000 0.000000 -46.796960 26.996601 5.750169 -79.742085 -3.521226 12.134676 -30.717049 -17.386624 -62.934335 13.705248 9.872644 -7.226818 0.000000 0.000000 0.000000 0.000000 0.000000 0.000000 -102.777044 -9.900977 3.189315 2.289567 -23.595911 -8.805621 5.572869 17.673851 -27.774732 16.499242 -21.070831 38.132349 0.000000 0.000000 0.000000 0.000000 0.000000 0.000000 -11.517897 -2.162710 -22.338750 7.064222 9.835941 -0.042278 -2.441162 -4.409442 6.821957 0.000000 0.000000 0.000000 -10.659255 3.457243 -20.173628 8.028427 -0.047057 -1.461112 -3.676599 -5.026399 2.788650 0.000000 0.000000 0.000000
39.757697 81.115471 297.795016 3.556805 -0.009041 20.267531 -0.539672 -0.341491 -20.146905 -0.256176 0.004217 0.113909 -24.323427 8.160659 6.683118 0.000000 0.000000 0.000000 -50.806667 25.842106 6.234442 -76.501805 -6.017342 11.001137 -37.163259 -19.287563 -80.132569 12.507030 22.282698 7.264318 0.000000 0.000000 0.000000 0.000000 0.000000 0.000000 -104.106988 -10.403304 2.294145 5.659593 -22.361370 -7.080151 3.665841 15.038616 -29.091279 15.693848 -19.457928 39.364632 0.000000 0.000000 0.000000 0.000000 0.000000 0.000000 -10.375079 -2.295116 -20.575839 6.991909 9.107451 0.085462 -2.078655 -5.505077 6.187839 0.000000 0.000000 0.000000 -10.192110 3.607689 -18.322685 7.918601 -0.863428 -1.612609 -3.757459 -4.885651 2.999296 0.000000 0.000000 0.000000
39.606030 81.480110 297.492082 3.145367 -0.106992 20.742809 -0.300738 -0.239401 -20.632304 -0.223432 0.135179 0.105197 -25.248263 7.413502 6.645213 0.000000 0.000000 0.000000 -54.481253 24.640507 6.406964 -72.957023 -8.920677 8.870376 -43.579649 -17.240896 -91.205805 14.156048 36.155050 18.343433 0.000000 0.000000 0.000000 0.000000 0.000000 0.000000 -105.456034 -10.828577 1.109441 9.136129 -20.734229 -4.991445 1.002936 10.508132 -31.730660 15.190997 -16.413979 40.754301 0.000000 0.000000 0.000000 0.000000 0.000000 0.000000 -9.072177 -1.797832 -20.985483 6.660240 8.105357 0.214828 -2.423286 -5.009659 5.455100 0.000000 0.000000 0.000000 -9.951637 3.363921 -18.869734 8.163505 -0.649682 -1.570058 -4.040595 -5.046215 3.140939 0.000000 0.000000 0.000000
39.526884 81.573150 297.095003 2.804589 -0.064655 18.919077 -0.226776 -0.244425 -18.820798 -0.218500 0.184756 0.093559 -24.963210 7.798559 6.838673 0.000000 0.000000 0.000000 -58.704060 23.404533 6.646558 -66.273364 -10.592365 9.474471 -54.233614 -14.147825 -113.551417 -4.018325 48.912298 48.141219 0.000000 0.000000 0.000000 0.000000 0.000000 0.000000 -106.011151 -11.018677 0.554358 11.195756 -19.721445 -3.844545 -3.060948 8.570224 -32.893263 16.426188 -15.428757 41.613888 0.000000 0.000000 0.000000 0.000000 0.000000 0.000000 -8.372751 -2.533707 -19.189424 6.412129 8.084495 0.231883 -2.603168 -4.668894 5.154267 0.000000 0.000000 0.000000 -9.886338 3.203756 -16.957164 8.508496 -1.123726 -1.676174 -4.299326 -5.079634 3.294247 0.000000 0.000000 0.000000
39.419974 81.563233 296.709983 2.474490 0.099750 18.244890 -0.139162 -0.270661 -18.158983 -0.174882 0.292170 0.086242 -24.220242 8.259553 6.928849 0.000000 0.000000 0.000000 -58.663582 22.882009 6.279969 -64.421965 -10.457990 10.351426 -62.705687 -6.915081 -135.684640 -32.459093 54.342111 86.731631 0.000000 0.000000 0.000000 0.000000 0.000000 0.000000 -106.797229 -10.963884 0.383304 13.476654 -18.518247 -2.703205 -8.745394 6.924638 -34.380724 19.423052 -13.541162 41.965637 0.000000 0.000000 0.000000 0.000000 0.000000 0.000000 -7.987521 -3.376439 -18.559387 6.090340 8.367960 0.186776 -2.532897 -4.316611 4.774214 0.000000 0.000000 0.000000 -9.842743 2.824979 -16.306844 8.797239 -1.248122 -1.711239 -4.526324 -4.999228 3.395246 0.000000 0.000000 0.000000
